# xmcd
#
# Track frame offsets: 
#        150
#        15659
#        26240
#        38611
#        47313
#        62164
#        71884
#        86536
#        99606
#        115987
#        124298
#        136412
#
# Disc length: 1968 seconds
#
# Revision: 0
# Processed by: cddbd v1.5.2PL0 Copyright (c) Steve Scherf et al.
# Submitted via: ExactAudioCopyFreeDBPlugin 1.0
#
DISCID=a407ae0c
DTITLE=Pierre Perret - Années Vogue - 45 tours
DYEAR=2011
DGENRE=Variété française
TTITLE0=Non, j'irai pas chez ma tante
TTITLE1=Mimi la douce
TTITLE2=Cuisses de mouche
TTITLE3=Vieux Sidney (les oignons)
TTITLE4=Les baisers
TTITLE5=Elle cherche des puces à son chat
TTITLE6=J'aime quand elle est contrariée
TTITLE7=Elle m'a dit rendez-vous à cinq heures
TTITLE8=Monsieur Victor
TTITLE9=La corde
TTITLE10=Tondeur d'œuf
TTITLE11=Ghislaine de la Bourboule
EXTD=Intégrale 1957 - 2011
EXTT0=
EXTT1=
EXTT2=
EXTT3=
EXTT4=
EXTT5=
EXTT6=
EXTT7=
EXTT8=
EXTT9=
EXTT10=
EXTT11=
PLAYORDER=
